<?xml version="1.0" standalone="no"?><!DOCTYPE svg PUBLIC "-//W3C//DTD SVG 1.1//EN" "http://www.w3.org/Graphics/SVG/1.1/DTD/svg11.dtd"><svg t="1509202785750" class="icon" style="" viewBox="0 0 1040 1024" version="1.1" xmlns="http://www.w3.org/2000/svg" p-id="2261" xmlns:xlink="http://www.w3.org/1999/xlink" width="48.75" height="48"><defs><style type="text/css"></style></defs><path d="M883.16117122 183.12678401L766.33337221 183.12678401c-17.38801899-63.33037401-76.552513-110.21724101-147.52084499-110.21724102L407.96130822 72.90954301c-70.995961 0-130.10519699 46.88686699-147.520845 110.21724098l-116.80016901 0c-78.55205399 0-142.21602599 63.663972-142.21602598 142.216026l-1e-8 483.53264501c0 78.55205399 63.663972 142.21602599 142.21602599 142.21602599l739.51985402 0c78.523401 0 142.21602599-63.663972 142.21602598-142.21602599l0-483.53264501C1025.37617322 246.790756 961.68457223 183.12678401 883.16117122 183.12678401zM968.48955822 808.874431c0 47.05264199-38.275745 85.329411-85.329411 85.32941101L143.64029423 894.20384201c-47.05366599 0-85.329411-38.275745-85.32941101-85.32941101l0-483.53264499c0-47.05264199 38.275745-85.329411 85.32941099-85.32941102l116.80016901 0 43.35953 0 11.498892-41.80410498c11.054777-40.275285 49.16474599-68.413136 92.662423-68.413136l210.851219 0c43.49870001 0 81.60764599 28.137851 92.690052 68.413136l11.498892 41.80410498 43.33190101 0 116.82779899 0c47.05264199 0 85.329411 38.275745 85.329411 85.32941102L968.49058222 808.874431z" p-id="2262" fill="#ffffff"></path><path d="M513.40073322 315.592748c-139.15940999 0-252.37698401 113.18892202-252.37698401 252.348332 0 139.16043301 113.21757399 252.35037801 252.37698401 252.35037802 139.132804 0 252.320703-113.18892202 252.32070301-252.35037802C765.72143522 428.78167001 652.53353723 315.592748 513.40073322 315.592748zM513.40073322 763.404844c-107.96699001 0-195.49037001-87.49575001-195.49037-195.463764 0-107.96699001 87.52337901-195.46274 195.49037-195.46274 107.939361 0 195.43511099 87.49575001 195.43511101 195.46274C708.83584423 675.90909401 621.34009423 763.404844 513.40073322 763.404844z" p-id="2263" fill="#ffffff"></path><path d="M868.16154922 291.17768598l-58.052161 4e-8c-15.721053 0-28.442796 12.721743-28.442796 28.44279599 0 15.722076 12.721743 28.442796 28.442796 28.44279597l58.052161 0c15.721053 0 28.443819-12.721743 28.443819-28.44279597C896.60434522 303.898405 883.88260222 291.17768598 868.16154922 291.17768598z" p-id="2264" fill="#ffffff"></path></svg>