<?xml version="1.0" standalone="no"?><!DOCTYPE svg PUBLIC "-//W3C//DTD SVG 1.1//EN" "http://www.w3.org/Graphics/SVG/1.1/DTD/svg11.dtd"><svg t="1509200902415" class="icon" style="" viewBox="0 0 1024 1024" version="1.1" xmlns="http://www.w3.org/2000/svg" p-id="8860" xmlns:xlink="http://www.w3.org/1999/xlink" width="48" height="48"><defs><style type="text/css"></style></defs><path d="M805.341466 997.197564c-4.886287 0-9.78997-1.164522-14.283308-3.526313l-278.789541-146.570193L233.478054 993.671251c-10.343579 5.436826-22.87601 4.533246-32.330336-2.336208-9.454326-6.868431-14.18814-18.508539-12.213159-30.02585l53.243645-310.440401L16.630261 431.014524c-8.367575-8.156774-11.379165-20.35663-7.767917-31.469736s13.218046-19.213597 24.78243-20.892843l311.698045-45.292556L484.739635 50.912553c5.17179-10.478655 15.842827-17.11275 27.528983-17.11275 11.685133 0 22.358217 6.634094 27.528983 17.11275l139.396817 282.445814 311.697021 45.292556c11.564383 1.680269 21.171182 9.779737 24.78243 20.892843 3.611248 11.113105 0.599657 23.313985-7.767917 31.469736L801.255405 632.447233l-42.857087-43.966351 162.107051-158.013827-266.112824-38.668695c-9.998725-1.452071-18.642592-7.733125-23.11444-16.793478l-119.010511-241.139036-119.010511 241.139036c-4.471848 9.060353-13.114692 15.341407-23.11444 16.793478l-266.112824 38.668695 192.561667 187.700963c7.235798 7.052626 10.536984 17.214057 8.829086 27.172873l-45.456285 265.039375L497.983263 785.244244c8.943696-4.703115 19.628036-4.703115 28.570709 0l238.018975 125.134998-21.280676-124.0769 60.515259-10.379395 31.795147 185.385221c1.976004 11.517311-2.758834 23.157419-12.213159 30.02585C818.04172 995.220536 811.706431 997.197564 805.341466 997.197564z" p-id="8861" fill="#ffffff"></path></svg>