<?xml version="1.0" standalone="no"?><!DOCTYPE svg PUBLIC "-//W3C//DTD SVG 1.1//EN" "http://www.w3.org/Graphics/SVG/1.1/DTD/svg11.dtd"><svg t="1509200893170" class="icon" style="" viewBox="0 0 1024 1024" version="1.1" xmlns="http://www.w3.org/2000/svg" p-id="8688" xmlns:xlink="http://www.w3.org/1999/xlink" width="48" height="48"><defs><style type="text/css"></style></defs><path d="M750.2 16.6C739.6 6 725.2 0 710.2 0L332.4 0c-37.7 0-69 27.8-74.6 63.9L179 63.9c-63.5 0-115 51.5-115 115l0 730c0 63.5 51.5 115 115 115l604.4 0c63.5 0 115-51.5 115-115l0-80.3c35-6.5 61.5-37.3 61.5-74.1L959.9 249.8c0-15-6-29.4-16.6-40.1L750.2 16.6zM867.1 224l-159 0L708.1 65 867.1 224zM834.5 909c0 28.1-22.9 51-51 51L179 960c-28.1 0-51-22.9-51-51l0-730c0-28.1 22.9-51 51-51l77.9 0 0 626.6c0 41.6 33.8 75.5 75.5 75.5l502.1 0L834.5 909zM896 754.5c0 6.3-5.1 11.5-11.5 11.5L332.4 766c-6.3 0-11.5-5.1-11.5-11.5L320.9 75.5c0-6.3 5.1-11.5 11.5-11.5l307.5 0 0 192c0 17.7 14.3 32 32 32l36.3 0 0 0L896 288 896 754.5z" p-id="8689" fill="#ffffff"></path><path d="M735.5 447 481 447c-17.7 0-32-14.3-32-32l0 0c0-17.7 14.3-32 32-32l254.5 0c17.7 0 32 14.3 32 32l0 0C767.5 432.7 753.1 447 735.5 447z" p-id="8690" fill="#ffffff"></path><path d="M735.5 576 481 576c-17.7 0-32-14.3-32-32l0 0c0-17.7 14.3-32 32-32l254.5 0c17.7 0 32 14.3 32 32l0 0C767.5 561.6 753.1 576 735.5 576z" p-id="8691" fill="#ffffff"></path><path d="M608.5 705l-128 0c-17.7 0-32-14.3-32-32l0 0c0-17.7 14.3-32 32-32l128 0c17.7 0 32 14.3 32 32l0 0C640.5 690.6 626.2 705 608.5 705z" p-id="8692" fill="#ffffff"></path></svg>