<?xml version="1.0" standalone="no"?><!DOCTYPE svg PUBLIC "-//W3C//DTD SVG 1.1//EN" "http://www.w3.org/Graphics/SVG/1.1/DTD/svg11.dtd"><svg t="1509202653854" class="icon" style="" viewBox="0 0 1024 1024" version="1.1" xmlns="http://www.w3.org/2000/svg" p-id="2253" xmlns:xlink="http://www.w3.org/1999/xlink" width="48" height="48"><defs><style type="text/css"></style></defs><path d="M512.01199999 993.33199998c-128.55599999 0-249.432-50.064-340.30799999-140.90399999C80.79199999 761.46800001 30.752 640.60399999 30.776 512c0-128.592 50.07600001-249.48 141-340.39199998C262.66399998 80.72 383.528 30.65599999 512.096 30.65599999c128.61599999 0 249.46800001 50.064 340.40400001 140.94000003 187.656 187.728 187.632 493.09199998 0 680.73599997C761.54000001 943.232 640.62800001 993.33199998 512.01199999 993.33199998L512.01199999 993.33199998zM512.096 93.39200001c-111.82800002 0-216.92400001 43.52399999-295.98000002 122.56799999C137.048 294.992 93.49999999 400.14799999 93.49999999 512 93.488 623.864 137 729.008 216.04399999 808.06399999c79.04400001 79.008 184.176 122.58000001 295.96800002 122.58000003 111.864 0 217.032-43.59600002 296.12399999-122.67600002 163.2-163.176 163.2-428.77199999 0-592.008C729.056 136.91599999 623.93600001 93.39200001 512.096 93.39200001L512.096 93.39200001z" p-id="2254" fill="#ffffff"></path><path d="M341.05999999 643.36400001c0 0 56.38800002 90.144 170.94000001 90.144s189.672-90.144 189.672-90.144 42.576-0.144 42.56400001 45.072c0 0-73.83599999 105.168-232.23600001 105.168-158.41199999 0-209.96400003-105.168-209.96400003-105.168S300.47599999 643.36400001 341.05999999 643.36400001z" p-id="2255" fill="#ffffff"></path><path d="M372.13999999 357.22400001c-32.46000002 0-58.94400001 26.4-58.94399997 58.956 0 32.50800001 26.48399999 58.92 58.94399999 58.92 32.60399999 0 58.94400001-26.41199999 58.944-58.92C431.08400001 383.624 404.744 357.22400001 372.13999999 357.22400001L372.13999999 357.22400001z" p-id="2256" fill="#ffffff"></path><path d="M674.15600001 357.22400001c-32.50800001 0-58.90799997 26.4-58.90800002 58.956 0 32.50800001 26.4 58.92 58.90800002 58.92 32.568 0 58.95599999-26.41199999 58.95599998-58.92C733.11200002 383.624 706.72400001 357.22400001 674.15600001 357.22400001L674.15600001 357.22400001z" p-id="2257" fill="#ffffff"></path></svg>