<?xml version="1.0" standalone="no"?><!DOCTYPE svg PUBLIC "-//W3C//DTD SVG 1.1//EN" "http://www.w3.org/Graphics/SVG/1.1/DTD/svg11.dtd"><svg t="1509444617294" class="icon" style="" viewBox="0 0 1024 1024" version="1.1" xmlns="http://www.w3.org/2000/svg" p-id="3226" xmlns:xlink="http://www.w3.org/1999/xlink" width="48" height="48"><defs><style type="text/css"></style></defs><path d="M972.107 935.968c0 14.62-13.611 26.702-28.231 26.702l-865.28-0.362a26.892 26.892 0 0 1-26.719-26.703V72.28c0-14.62 12.1-26.719 26.719-26.719l866.792 0.378c14.636 0 26.719 12.1 26.719 26.719v863.31z" fill="#39569D" p-id="3227"></path><path d="M965.71 931.399c0 14.478-13.406 26.45-27.836 26.45l-853.244-0.393a26.577 26.577 0 0 1-26.34-26.451V76.863c0-14.478 11.925-26.45 26.34-26.45l854.74 0.377c14.415 0 26.34 11.973 26.34 26.42v854.189zM939.954 0.379L84.047 0a76.28 76.28 0 0 0-76.17 76.406v855.072c0 42.188 34.107 76.406 76.17 76.406l854.41 0.362c42.062 0 77.666-34.201 77.666-76.406V76.753A76.28 76.28 0 0 0 939.953 0.378z" fill="#39569D" p-id="3228"></path><path d="M723.874 421.967h112.12V283.569h-112.12c-92.775 0-169.04 81.495-169.04 181.61v70.294l-111.284-0.472v135.183h111.285v339.764h141.012l-0.425-339.764h129.323l11.264-135.183H695.847l-0.425-75.698c0-23.977 15.234-37.336 28.452-37.336" fill="#FFFFFF" p-id="3229"></path></svg>