<?xml version="1.0" standalone="no"?><!DOCTYPE svg PUBLIC "-//W3C//DTD SVG 1.1//EN" "http://www.w3.org/Graphics/SVG/1.1/DTD/svg11.dtd"><svg t="1509202746915" class="icon" style="" viewBox="0 0 1024 1024" version="1.1" xmlns="http://www.w3.org/2000/svg" p-id="2261" xmlns:xlink="http://www.w3.org/1999/xlink" width="48" height="48"><defs><style type="text/css"></style></defs><path d="M978.62180006 234.66666667l-153.6512 0c16.12800001-21.4016 25.6512-48.0256 25.65120001-76.80000001 0-70.55359998-57.44639999-128.00000001-128.00000003-127.99999999-71.168 0-130.86720002 56.37120001-160.10239997 90.0096-17.7152 20.3264-32.97280001 42.1376-44.69760003 63.232-11.7248-21.09440001-26.9824-42.8544-44.69759998-63.232-29.2352-33.5872-88.9344-90.0096-160.10240001-90.0096-70.55359998 0-128.00000001 57.44639999-127.99999999 128.00000001 0 28.7744 9.5744 55.3984 25.6512 76.79999999l-153.65120001 0c-14.13120001 0-25.60000003 11.4688-25.59999999 25.59999999l0 153.6c0 14.13120001 11.4688 25.60000003 25.59999999 25.60000001l25.6 0 0 486.40000001c0 42.3424 34.4576 76.80000001 76.80000001 76.79999999l716.79999999 0c42.3424 0 76.80000001-34.4576 76.80000001-76.80000002l0-486.39999998 25.59999999 0c14.13120001 0 25.60000003-11.4688 25.60000001-25.60000001l0-153.59999998c0-14.13120001-11.4688-25.60000003-25.60000001-25.60000001zM601.12420006 153.46346667c40.0384-46.0288 84.32640001-72.39679999 121.49759998-72.39680001 42.3424 0 76.80000001 34.4576 76.80000003 76.80000002s-34.4576 76.80000001-76.80000001 76.79999999l-172.95360001 0c8.8576-22.6304 26.7776-52.8384 51.45600001-81.2032zM594.62180005 951.46666667l-153.59999999 0 0-665.6 153.59999999 0 0 665.6zM236.22180006 157.86666666c0-42.3424 34.4576-76.80000001 76.8-76.8 37.1712 0 81.45919999 26.368 121.49759999 72.39680001 24.67839999 28.3648 42.59840001 58.5728 51.45600002 81.2032l-172.95360002 0c-42.3424 0-76.80000001-34.4576-76.79999999-76.79999999zM82.62180005 285.86666667l307.20000001 0 0 102.4-307.20000001 0 0-102.4zM133.82180005 925.86666668l1e-8-486.40000001 256 0 0 512-230.4 0c-14.13120001 0-25.60000003-11.4688-25.60000001-25.60000002zM901.82180005 925.86666668c0 14.13120001-11.4688 25.60000003-25.6 25.59999999l-230.4 0 0-512 256 0 0 486.40000001zM953.02180006 388.26666667l-307.20000001 0 0-102.4 307.2 0 0 102.4z" p-id="2262" fill="#ffffff"></path></svg>