<?xml version="1.0" standalone="no"?><!DOCTYPE svg PUBLIC "-//W3C//DTD SVG 1.1//EN" "http://www.w3.org/Graphics/SVG/1.1/DTD/svg11.dtd"><svg t="1509072534975" class="icon" style="" viewBox="0 0 1024 1024" version="1.1" xmlns="http://www.w3.org/2000/svg" p-id="2050" xmlns:xlink="http://www.w3.org/1999/xlink" width="48" height="48"><defs><style type="text/css"></style></defs><path d="M512.00054938 990.44191344c-263.81909344 0-478.44136406-214.62226969-478.44136313-478.44136407s214.62226969-478.44356344 478.44136313-478.4435625 478.44136406 214.62226969 478.44136406 478.44246375-214.62226969 478.44246375-478.44136407 478.44246282z m0-900.59699625c-232.77612 0-422.1545325 189.3784125-422.1545325 422.15453343S279.22442937 934.15288344 512.00054938 934.15288344s422.1545325-189.37731281 422.15453343-422.15343281S744.77557063 89.84491719 512.00054938 89.84491719z" p-id="2051" fill="#ffffff"></path><path d="M512.29963156 744.04875688m-55.49294344-1e-8a55.49294344 55.49294344 0 1 0 110.98588782 0 55.49294344 55.49294344 0 1 0-110.98588782 0Z" p-id="2052" fill="#ffffff"></path><path d="M567.79257594 600.82246719c0 30.52287844-24.97116469 55.49404313-55.49294438 55.49404312s-55.49294344-24.97116469-55.49294344-55.49404312V280.54720906c0-30.52287844 24.97116469-55.49404313 55.49294344-55.49404406 30.52177875 0 55.49294344 24.97116469 55.49294438 55.49404406v320.27525813z" p-id="2053" fill="#ffffff"></path></svg>