<?xml version="1.0" standalone="no"?><!DOCTYPE svg PUBLIC "-//W3C//DTD SVG 1.1//EN" "http://www.w3.org/Graphics/SVG/1.1/DTD/svg11.dtd"><svg t="1509202913332" class="icon" style="" viewBox="0 0 1027 1024" version="1.1" xmlns="http://www.w3.org/2000/svg" p-id="2261" xmlns:xlink="http://www.w3.org/1999/xlink" width="48.140625" height="48"><defs><style type="text/css"></style></defs><path d="M910.40000001 116L113.59999999 116C68 116 32 151.99999999 32 195.2l0 647.99999999c0 45.6 36 81.60000001 81.60000001 81.60000001l799.2 0c45.6 0 81.60000001-36 81.59999999-81.60000001l0-647.99999999C992 151.99999999 956 116 910.40000001 116zM944 843.20000003c0 16.8-14.40000001 33.60000001-33.60000001 33.59999997L113.59999999 876.8c-16.8 0-33.60000001-14.40000001-33.59999999-33.60000001L80 656l244.80000001-206.40000001 256.79999999 247.20000001c9.6 9.6 21.59999999 9.6 31.20000001 0l122.39999999-100.8 201.6 206.4c2.39999999 2.39999999 4.80000001 2.39999999 7.2 4.8L944 843.20000003zM944 742.40000001l-189.6-194.40000001c-9.6-9.6-24.00000003-9.6-33.6-2.40000001l-122.4 100.80000001L341.6 401.60000002c-9.6-9.6-21.59999999-9.6-31.2 0l-230.4 191.99999997L80 195.2c0-16.8 14.40000001-33.60000001 33.60000001-33.60000002l799.2 0c16.8 0 33.60000001 14.40000001 33.59999999 33.60000002L946.4 742.40000001z" p-id="2262" fill="#ffffff"></path></svg>