<?xml version="1.0" standalone="no"?><!DOCTYPE svg PUBLIC "-//W3C//DTD SVG 1.1//EN" "http://www.w3.org/Graphics/SVG/1.1/DTD/svg11.dtd"><svg t="1509202928563" class="icon" style="" viewBox="0 0 1024 1024" version="1.1" xmlns="http://www.w3.org/2000/svg" p-id="2570" xmlns:xlink="http://www.w3.org/1999/xlink" width="48" height="48"><defs><style type="text/css"></style></defs><path d="M73.61120002 887.6336l751.35839998 0c23.43840001 0 41.7792-16.6416 41.7792-41.6064l0-83.5584 83.3856 0c22.7568 0 43.3056-15.96479999 41.7792-41.7792L991.9136 178.232c0-27.5136-23.6064-43.3104-41.7792-41.7792L198.9536 136.4528c-24.288 0-43.3056 17.4912-41.77920001 41.7792l0 83.3904L73.61120002 261.6224c-20.7216-0.168-41.6064 19.69919999-41.60640002 41.7792l0 542.6256C32.0048 877.1024 56.8016 888.1424 73.61120002 887.6336zM115.3952 846.0272c-27.5136 0-41.7792-19.5312-41.7792-41.7792l0-83.5584 166.9488-166.94880001 208.72800001 208.72800001 166.09919999-81.696 209.5776 165.2544C824.1152 845.6864 115.3952 846.0272 115.3952 846.0272zM198.9536 219.8384c0-36.85439999 18.6816-41.6064 41.6064-41.6064l667.968 0c30.7392 0 41.6064 18.5136 41.6064 41.6064 0 0-2.03520001 459.576 0 459.2352 0 33.4608-4.752 39.5712-41.6064 41.61120001l-41.7792 0L866.7488 303.4016c0-27.1728-9.5088-41.7792-41.7792-41.7792L198.9536 261.6224 198.9536 219.8384zM115.3952 303.4016l667.8 0c22.416 0 41.7792 19.3632 41.7792 41.7792l0 459.0672-208.728-166.94880001-166.9488 83.39040001-208.728-208.56L73.61120002 679.07839999 73.61120002 345.1808C73.61120002 322.7648 80.744 303.4016 115.3952 303.4016z" p-id="2571" fill="#ffffff"></path><path d="M616.2416 428.5712c23.0976 0 41.7792 18.6816 41.7792 41.7792 0 22.92479999-18.6864 41.7792-41.7792 41.7792-22.9296 0-41.6112-18.85439999-41.61119999-41.7792C574.63040001 447.2528 593.3072 428.5712 616.2416 428.5712z" p-id="2572" fill="#ffffff"></path></svg>