<?xml version="1.0" standalone="no"?><!DOCTYPE svg PUBLIC "-//W3C//DTD SVG 1.1//EN" "http://www.w3.org/Graphics/SVG/1.1/DTD/svg11.dtd"><svg t="1509546017815" class="icon" style="" viewBox="0 0 1024 1024" version="1.1" xmlns="http://www.w3.org/2000/svg" p-id="2353" xmlns:xlink="http://www.w3.org/1999/xlink" width="48" height="48"><defs><style type="text/css"></style></defs><path d="M980.84 492.02l-139.2 139.2c-7.14 7.08-16.86 11.16-26.94 11.16s-19.68-4.02-26.94-11.16l-139.08-139.2c-14.82-14.88-14.82-38.94 0-53.88 14.88-14.88 38.88-14.88 53.88 0l74.04 74.22L776.6 512c0-184.32-149.82-334.2-334.2-334.2C258.14 177.8 108.14 327.68 108.14 512s150 334.2 334.26 334.2c89.28 0 173.22-34.74 236.46-97.86 14.76-14.88 38.88-14.88 53.76 0s14.82 38.88 0 53.76c-77.46 77.58-180.54 120.24-290.22 120.24C216.08 922.28 32 738.26 32 512s184.08-410.4 410.4-410.4c226.32 0 410.4 184.08 410.4 410.4l0 0.36 74.16-74.22c14.88-14.82 38.88-14.82 53.88 0C995.72 453.14 995.72 477.14 980.84 492.02z" p-id="2354" fill="#ffffff"></path></svg>