<?xml version="1.0" standalone="no"?><!DOCTYPE svg PUBLIC "-//W3C//DTD SVG 1.1//EN" "http://www.w3.org/Graphics/SVG/1.1/DTD/svg11.dtd"><svg t="1509203018096" class="icon" style="" viewBox="0 0 1024 1024" version="1.1" xmlns="http://www.w3.org/2000/svg" p-id="2256" xmlns:xlink="http://www.w3.org/1999/xlink" width="48" height="48"><defs><style type="text/css"></style></defs><path d="M863.05450667 638.04757333c-45.65674667 148.87594667-184.70229333 257.44725333-348.54229334 257.44725334-199.55712 0-363.50634667-163.29386667-365.58165333-362.0864l22.17301333 14.41792c11.68725333 11.79648 32.22186667 11.79648 43.90912 0.10922666 12.23338667-12.12416 12.23338667-31.78496 0.10922667-43.90912l-61.16693333-52.53802666c-5.78901333-5.89824-15.61941333-14.09024-31.02037334-14.09024-15.29173333 0-20.86229333 0-30.69269333 10.37653333L20.48 511.56309333c-5.89824 5.78901333-9.28426667 13.65333333-9.28426667 21.95456-0.10922667 8.30122667 3.16757333 16.05632 8.95658667 21.95456 0 0 18.13162667 19.98848 43.90912 0.43690667l20.97152-20.09770667c0.21845333 5.57056 3.38602667 27.74357333 3.93216 33.20490667C107.75210667 789.43573333 290.26986667 958.73706667 514.51221333 958.73706667c202.83392 0 373.11829333-141.66698667 416.69973334-331.17525334-23.37450667 4.58752-47.62282667 8.192-68.15744 10.48576zM159.96245333 384.96938667c45.76597333-148.76672 184.70229333-257.33802667 348.43306667-257.33802667 199.55712 0 363.50634667 163.29386667 365.58165333 362.0864l-22.17301333-14.41792c-11.68725333-11.79648-32.22186667-11.79648-43.90912-0.10922667-12.23338667 12.12416-12.23338667 31.78496-0.10922667 43.90912l61.16693334 52.53802667c5.78901333 5.89824 15.61941333 14.09024 31.02037333 14.09024 15.29173333 0 20.86229333 0 30.69269333-10.37653333l71.54346667-63.67914667c5.89824-5.78901333 9.28426667-13.65333333 9.28426667-21.95456 0.10922667-8.30122667-3.16757333-16.05632-8.95658667-21.95456 0 0-18.13162667-19.98848-43.90912-0.43690667L937.984 487.424c-0.21845333-5.57056-3.38602667-27.74357333-3.93216-33.20490667C915.26485333 233.79968 732.74709333 64.49834667 508.50474667 64.49834667 305.5616 64.49834667 135.168 206.38378667 91.69578667 396.00128c20.20693333-5.89824 45.54752-10.59498667 68.26666666-11.03189333z m0 0" fill="#ffffff" p-id="2257"></path><path d="M506.97557333 378.08810667l-54.17642666 134.13034666H561.152l-54.17642667-134.13034666z m0-108.46208c12.45184-0.54613333 24.46677333 6.77205333 29.4912 19.00544l149.85898667 371.04298666c6.33514667 15.61941333-1.20149333 33.31413333-16.82090667 39.64928-15.61941333 6.33514667-33.31413333-1.20149333-39.64928-16.82090666L585.728 573.16693333H428.22314667l-44.12757334 109.33589334c-6.33514667 15.61941333-24.02986667 23.15605333-39.64928 16.82090666-15.61941333-6.33514667-23.15605333-24.02986667-16.82090666-39.64928l149.96821333-371.04298666c4.9152-12.23338667 16.93013333-19.55157333 29.38197333-19.00544z m0 0" fill="#ffffff" p-id="2258"></path></svg>