<?xml version="1.0" standalone="no"?><!DOCTYPE svg PUBLIC "-//W3C//DTD SVG 1.1//EN" "http://www.w3.org/Graphics/SVG/1.1/DTD/svg11.dtd"><svg t="1509013123109" class="icon" style="" viewBox="0 0 1024 1024" version="1.1" xmlns="http://www.w3.org/2000/svg" p-id="2843" xmlns:xlink="http://www.w3.org/1999/xlink" width="48" height="48"><defs><style type="text/css"></style></defs><path d="M310.32888888 649.40942221v311.40522667c0 22.50069333 18.24085333 40.85077333 40.85077334 40.85077333h309.54837333c36.37248 0 54.61333333-43.90912 28.94506667-69.57738667l-127.35829334-47.07669333C510.21368888 865.67822221 468.27064888 825.91971554 446.31608888 774.80163554l-66.19136-154.11882666c-25.66826667-25.88672-69.79584-7.64586667-69.79584 28.72661333z" p-id="2844" fill="#ffffff"></path><path d="M382.1740032 968.50387247c-23.23955105 0-43.99358862-16.2801133-48.71606423-40.01676706-4.47392427-22.12106998 6.58661072-43.74503728 25.60078885-53.6870912 14.16742685-10.93625932 72.45271798-65.36900457 131.48366317-136.82751715 71.58278827-86.86869618 115.07927419-163.79533843 122.41153897-216.36394857 10.93625932-78.16939899 6.58661072-121.04450655-17.52287004-170.00912213-27.21637262-55.42695063-81.0277395-120.17457683-192.00591645-231.15275378-19.38700515-19.38700515-19.38700515-50.8287507 0-70.34003152 19.38700515-19.38700515 50.8287507-19.38700515 70.34003152 0 119.30464711 119.30464711 178.45986797 191.50881375 210.89581891 257.62347235 38.02835627 77.29946928 38.40118329 144.40833328 26.71926992 227.6730349-5.96523235 42.50228053-25.35223751 91.34262045-57.66391277 145.278263-24.97941049 41.63235082-57.41536142 86.24731781-96.68647443 132.72641991-39.7682157 47.10048048-75.80816118 83.51325298-93.82813392 101.03612302-12.67611875 12.30329173-24.23375645 22.9909997-33.67870768 31.06891852-14.66452955 12.55184308-24.60658347 19.51128083-37.65552924 22.12106998-3.23116752 0.62137837-6.46233505 0.86992972-9.69350258 0.86992973z" p-id="2845" fill="#ffffff"></path></svg>