<?xml version="1.0" standalone="no"?><!DOCTYPE svg PUBLIC "-//W3C//DTD SVG 1.1//EN" "http://www.w3.org/Graphics/SVG/1.1/DTD/svg11.dtd"><svg t="1509198467793" class="icon" style="" viewBox="0 0 1024 1024" version="1.1" xmlns="http://www.w3.org/2000/svg" p-id="5002" xmlns:xlink="http://www.w3.org/1999/xlink" width="48" height="48"><defs><style type="text/css"></style></defs><path d="M108.5 474.1h796.6c23 0 41.7-18.7 41.7-41.7 0-12.7-5.8-24.8-15.8-32.7-2.5-3.2-5.5-6.1-8.9-8.4L624.6 182.5c-18.8-13.3-44.8-8.8-58.1 10-13.3 18.8-8.8 44.8 10 58.1 0.1 0 0.1 0.1 0.2 0.1l199.4 140H108.5c-23 0-41.7 18.7-41.7 41.7s18.7 41.7 41.7 41.7z m796.7 166.5H108.5c-23 0-41.7 18.7-41.7 41.7 0 12.7 5.8 24.8 15.8 32.7 2.5 3.1 5.4 6 8.9 8.4l297.6 208.9c18.8 13.2 44.8 8.7 58.1-10.1v-0.1c13.2-18.9 8.7-44.9-10.2-58.1L237.6 724h667.6c23 0 41.7-18.7 41.7-41.7 0-23-18.7-41.7-41.7-41.7z" p-id="5003" fill="#ffffff"></path></svg>