<?xml version="1.0" standalone="no"?><!DOCTYPE svg PUBLIC "-//W3C//DTD SVG 1.1//EN" "http://www.w3.org/Graphics/SVG/1.1/DTD/svg11.dtd"><svg t="1509013137432" class="icon" style="" viewBox="0 0 1024 1024" version="1.1" xmlns="http://www.w3.org/2000/svg" p-id="3277" xmlns:xlink="http://www.w3.org/1999/xlink" width="48" height="48"><defs><style type="text/css"></style></defs><path d="M696.99584 637.57653333v311.40522666c0 22.50069333-18.24085333 40.85077333-40.85077333 40.85077334H346.59669334c-36.37248 0-54.61333333-43.90912-28.94506667-69.57738667l127.35829333-47.07669333c52.10112-19.22389333 94.04416-59.09162667 115.99872-110.20970667L627.2 608.84991999c25.66826667-25.88672 69.79584-7.64586667 69.79584 28.72661334z" p-id="3278" fill="#ffffff"></path><path d="M622.68675413 959.59810654c-3.23116752 0-6.46233505-0.37282702-9.81777825-0.9942054-13.04894578-2.60978915-22.9909997-9.5692269-37.65552925-22.12106998-9.44495123-8.07791882-21.12686459-18.88990245-33.67870767-31.06891852-18.01997275-17.52287005-54.05991822-53.93564255-93.82813393-101.03612302-39.14683733-46.4791021-71.70706395-91.0940691-96.68647442-132.72641991-32.31167525-53.93564255-51.69868042-102.77598245-57.66391278-145.278263-11.68191337-83.14042595-11.30908635-150.24928995 26.71926993-227.6730349 32.43595093-66.11465861 91.59117179-138.31882525 210.8958189-257.62347235 19.38700515-19.38700515 50.8287507-19.38700515 70.34003152 0 19.38700515 19.38700515 19.38700515 50.8287507 0 70.34003152-110.97817695 110.97817695-164.78954382 175.72580315-192.00591644 231.15275378-23.9852051 48.96461558-28.45912937 91.83972315-17.52287005 170.00912213 7.33226477 52.69288581 50.8287507 129.49525238 122.41153897 216.36394857 58.90666951 71.58278827 117.31623632 126.01553351 131.48366317 136.82751715 19.01417813 9.94205392 29.95043745 31.56602122 25.60078886 53.81136688-4.59819995 23.73665375-25.35223751 40.01676705-48.59178856 40.01676705z" p-id="3279" fill="#ffffff"></path></svg>