<?xml version="1.0" standalone="no"?><!DOCTYPE svg PUBLIC "-//W3C//DTD SVG 1.1//EN" "http://www.w3.org/Graphics/SVG/1.1/DTD/svg11.dtd"><svg t="1509013152452" class="icon" style="" viewBox="0 0 1024 1024" version="1.1" xmlns="http://www.w3.org/2000/svg" p-id="3727" xmlns:xlink="http://www.w3.org/1999/xlink" width="48" height="48"><defs><style type="text/css"></style></defs><path d="M283.64117333 397.35296001v-311.296c0-22.50069333 18.24085333-40.85077333 40.85077333-40.85077334h309.54837334c36.37248 0 54.61333333 43.90912 28.94506666 69.57738667l-127.35829333 47.07669333c-52.10112 19.22389333-94.04416 59.09162667-115.99872 110.20970667l-66.19136 154.11882667c-25.66826667 25.77749333-69.79584 7.64586667-69.79584-28.83584z" p-id="3728" fill="#ffffff"></path><path d="M414.21012386 989.3111372c-12.67611875 0-25.47651318-4.84675129-35.17001576-14.54025388-19.38700515-19.38700515-19.38700515-50.8287507 0-70.34003153 110.97817695-110.97817695 164.78954382-175.72580315 192.00591644-231.15275377 23.9852051-48.96461558 28.45912937-91.83972315 17.52287004-170.00912213-7.33226477-52.69288581-50.8287507-129.49525238-122.41153896-216.36394856-58.90666951-71.58278827-117.31623632-126.01553351-131.48366317-136.82751716-19.01417813-9.94205392-29.95043745-31.56602122-25.60078886-53.68709119 5.34385398-26.96782128 31.56602122-44.36641565 58.53384249-39.02256167 13.04894578 2.60978915 22.9909997 9.5692269 37.65552925 22.12106998 9.44495123 8.07791882 21.12686459 18.88990245 33.67870767 31.06891853 18.01997275 17.52287005 54.05991822 53.93564255 93.82813393 101.03612302 39.14683733 46.4791021 71.70706395 91.0940691 96.68647442 132.72641992 32.31167525 53.93564255 51.69868042 102.77598245 57.66391278 145.27826298 11.68191337 83.14042595 11.30908635 150.24928995-26.71926993 227.67303491-32.43595093 66.11465861-91.59117179 138.31882525-210.8958189 257.62347234-9.81777825 9.5692269-22.61817268 14.41597819-35.29429144 14.41597821z" p-id="3729" fill="#ffffff"></path></svg>