<?xml version="1.0" standalone="no"?><!DOCTYPE svg PUBLIC "-//W3C//DTD SVG 1.1//EN" "http://www.w3.org/Graphics/SVG/1.1/DTD/svg11.dtd"><svg t="1509013166677" class="icon" style="" viewBox="0 0 1024 1024" version="1.1" xmlns="http://www.w3.org/2000/svg" p-id="4177" xmlns:xlink="http://www.w3.org/1999/xlink" width="48" height="48"><defs><style type="text/css"></style></defs><path d="M716.69077333 397.35296001v-311.296c0-22.50069333-18.24085333-40.85077333-40.85077333-40.85077334H366.29162667c-36.37248 0-54.61333333 43.90912-28.94506667 69.57738667l127.35829333 47.07669333c52.10112 19.22389333 94.04416 59.09162667 115.99872 110.20970667l66.19136 154.11882667c25.66826667 25.77749333 69.79584 7.64586667 69.79584-28.83584z" p-id="4178" fill="#ffffff"></path><path d="M589.00489101 987.97780386c12.67611875 0 25.47651318-4.84675129 35.17001577-14.54025387 19.38700515-19.38700515 19.38700515-50.8287507 0-70.34003153-110.97817695-110.85390128-164.78954382-175.72580315-192.00591645-231.15275377-23.9852051-48.96461558-28.45912937-91.83972315-17.52287004-170.00912213 7.33226477-52.69288581 50.8287507-129.49525238 122.41153895-216.36394857 58.90666951-71.58278827 117.31623632-126.01553351 131.48366318-136.82751715 19.01417813-9.94205392 29.95043745-31.56602122 25.60078885-53.6870912-5.34385398-26.96782128-31.56602122-44.36641565-58.53384248-39.02256166-13.04894578 2.60978915-22.9909997 9.5692269-37.65552925 22.12106998-9.44495123 8.07791882-21.12686459 18.88990245-33.67870767 31.06891853-18.01997275 17.52287005-54.05991822 53.93564255-93.82813393 101.03612302-39.14683733 46.4791021-71.70706395 91.0940691-96.68647443 132.72641991-32.31167525 53.93564255-51.69868042 102.77598245-57.66391277 145.27826299-11.68191337 83.14042595-11.30908635 150.24928995 26.71926993 227.6730349C375.37500727 781.92873624 434.53022814 854.13290289 553.83487524 973.43754999c9.69350258 9.69350258 22.36962133 14.54025387 35.17001577 14.54025387z" p-id="4179" fill="#ffffff"></path></svg>