<?xml version="1.0" standalone="no"?><!DOCTYPE svg PUBLIC "-//W3C//DTD SVG 1.1//EN" "http://www.w3.org/Graphics/SVG/1.1/DTD/svg11.dtd"><svg t="1509200912030" class="icon" style="" viewBox="0 0 1024 1024" version="1.1" xmlns="http://www.w3.org/2000/svg" p-id="9029" xmlns:xlink="http://www.w3.org/1999/xlink" width="48" height="48"><defs><style type="text/css"></style></defs><path d="M955.392 107.648 777.6 779.2c-10.048 37.888-18.368 68.8-18.56 68.736-0.192-0.064-0.32-0.768-0.384-0.96-0.064-0.192-29.056-12.48-64.448-27.264l-116.608-48.832c-35.392-14.784-93.504-38.592-129.152-52.736l-12.288-4.928c-35.648-14.144-43.328-49.216-17.216-77.888l361.024-397.12c26.112-28.736 22.912-32.32-7.168-8L316.16 600.32C285.952 624.512 232.256 632.384 196.736 617.984L91.584 575.232C56.064 560.704 54.656 533.952 88.512 515.712l823.552-443.84C945.92 53.696 965.376 69.76 955.392 107.648zM331.648 741.248l84.224 32.128c36.928 14.016 49.28 51.008 27.456 81.984 0 0-77.248 110.08-75.072 104 2.24-6.208-75.904-181.312-75.904-181.376C277.056 743.68 294.72 727.168 331.648 741.248z" p-id="9030" fill="#ffffff"></path></svg>