<?xml version="1.0" standalone="no"?><!DOCTYPE svg PUBLIC "-//W3C//DTD SVG 1.1//EN" "http://www.w3.org/Graphics/SVG/1.1/DTD/svg11.dtd"><svg t="1509202702103" class="icon" style="" viewBox="0 0 1024 1024" version="1.1" xmlns="http://www.w3.org/2000/svg" p-id="2256" xmlns:xlink="http://www.w3.org/1999/xlink" width="48" height="48"><defs><style type="text/css"></style></defs><path d="M512 15.51802428a241.6471439 241.6471439 0 0 0-241.6471439 241.6471439v207.12612386a241.6471439 241.6471439 0 1 0 483.2942878 0v-207.12612386a241.6471439 241.6471439 0 0 0-241.6471439-241.6471439z m172.60510261 448.77326776c0 95.17445332-77.43064929 172.60510261-172.60510261 172.60510261s-172.60510261-77.43064929-172.60510261-172.60510261v-207.12612386c0-95.17445332 77.43064929-172.60510261 172.60510261-172.60510262s172.60510261 77.43064929 172.60510261 172.60510262v207.12612386z" p-id="2257" fill="#ffffff"></path><path d="M512 15.51802428a241.6471439 241.6471439 0 0 0-241.6471439 241.6471439v207.12612386a241.6471439 241.6471439 0 1 0 483.2942878 0v-207.12612386a241.6471439 241.6471439 0 0 0-241.6471439-241.6471439z m172.60510261 448.77326776c0 95.17445332-77.43064929 172.60510261-172.60510261 172.60510261s-172.60510261-77.43064929-172.60510261-172.60510261v-207.12612386c0-95.17445332 77.43064929-172.60510261 172.60510261-172.60510262s172.60510261 77.43064929 172.60510261 172.60510262v207.12612386z" p-id="2258" fill="#ffffff"></path><path d="M822.68918518 464.29129204c0 171.32782539-139.3613598 310.68918518-310.68918518 310.68918519-171.29330369 0-310.68918518-139.3613598-310.68918518-310.68918519H132.26877353c0 209.7152 170.01602647 379.73122647 379.73122647 379.73122647s379.73122647-170.01602647 379.73122647-379.73122647h-69.04204129z" p-id="2259" fill="#ffffff"></path><path d="M512 774.98047723a34.52102004 34.52102004 0 0 0-34.52102004 34.52102125v172.60510262a34.52102004 34.52102004 0 1 0 69.04204008 0v-172.60510262a34.52102004 34.52102004 0 0 0-34.52102004-34.52102125z" p-id="2260" fill="#ffffff"></path></svg>