<?xml version="1.0" standalone="no"?><!DOCTYPE svg PUBLIC "-//W3C//DTD SVG 1.1//EN" "http://www.w3.org/Graphics/SVG/1.1/DTD/svg11.dtd"><svg t="1509437102740" class="icon" style="" viewBox="0 0 1024 1024" version="1.1" xmlns="http://www.w3.org/2000/svg" p-id="2849" xmlns:xlink="http://www.w3.org/1999/xlink" width="48" height="48"><defs><style type="text/css"></style></defs><path d="M85.22704264 285.82588315c80.75402617-164.33601431 258.1929311-276.88890214 441.85335249-275.82056093 125.12160785-3.73919421 251.72004029 43.2363969 342.02629367 130.33762664-47.3212309 45.71871909-94.35966559 91.68881258-141.39810028 137.69032788-54.73677571-48.38957209-127.13260305-77.04625374-200.65961521-73.43274675-125.43582586-0.21995261-240.84809747 89.74066098-280.09392575 207.38388042-54.13976149-41.75957228-108.65658461-83.07923937-161.72800492-126.15852726z" fill="#EB4F43" p-id="2850"></path><path d="M84.94424644 737.95416425c-71.76739135-139.19857427-72.20729654-313.14965942 0.2827962-452.1282811 53.07142031 43.07928788 107.5882434 84.39895497 161.72800492 126.15852726-21.39824583 64.60322094-21.52393302 135.30227107 0.1256872 199.87407018-54.32829231 41.66530689-108.43663201 83.64483177-162.13648832 126.09568366z" fill="#FBC017" p-id="2851"></path><path d="M533.36475512 420.87677983c156.88904772 0.15710901 313.84093903-0.84838861 470.69856494 0.43990519 35.60089948 166.06421333-10.58914662 355.3805587-138.60156008 471.57837533-52.06592269-41.50819789-105.89146621-80.84829157-157.39179651-123.01634724 52.09734451-39.18298468 92.06587419-97.09336219 101.39814879-162.38786271-92.00303057-0.12568719-184.00606116 0.12568719-276.00909174-0.12568721-0.2827962-62.15232053-0.06284359-124.30464105-0.0942654-186.48838336z" fill="#4889F3" p-id="2852"></path><path d="M84.94424644 737.95416425c53.69985632-42.45085188 107.808196-84.43037677 162.13648832-126.09568366 22.37232163 64.13189393 65.10596972 121.13103925 121.85374064 158.74293392 99.5442626 67.14838674 239.87402167 66.55137252 339.13548807-0.7227014 51.50033029 42.16805567 105.32587381 81.50814937 157.39179651 123.01634724-105.60867001 99.8899024-259.88970832 135.45938007-401.53918297 116.73198723-160.78535092-20.89549705-307.39947001-126.37847985-378.97833057-271.67288333z" fill="#3CAB5B" p-id="2853"></path></svg>